PathFileType	4	(X/Y/Z)	D:\TRACE\v60_Jaco2_6-2-23\JustBodyDRS_Motion1_4-v60.trc
DataRate	CameraRate	NumFrames	NumMarkers	Units	OrigDataRate	OrigDataStartFrame	OrigNumFrames
100.00	100.00	      14	9	mm	100.00	1740	      6956
Frame#	Time	front left toe			Front right toe			aft left toe			aft right toe			Arm			FL body			FR body			AL Body			AR Body			
		X1	Y1	Z1	X2	Y2	Z2	X3	Y3	Z3	X4	Y4	Z4	X5	Y5	Z5	X6	Y6	Z6	X7	Y7	Z7	X8	Y8	Z8	X9	Y9	Z9	

1740	17.390	-129.39006	133.40915	-223.76160	257.18445	25.77627	-263.98853	-60.30970	3.02755	395.79013	306.27258	116.44685	356.39749	-57.61623	1224.82629	-331.51968	-34.47955	593.60468	-365.49054	124.82641	594.04449	-383.74625	71.15736	537.18970	573.06488	229.72380	531.50201	556.93988	
1741	17.400	-131.45615	142.10556	-223.34886	256.54837	25.78549	-263.83057	-61.08106	3.14498	395.98169	304.72656	125.67570	357.03372	-59.74603	1224.34656	-331.50159	-35.66333	593.25372	-365.08041	123.29650	593.53748	-382.98035	69.94192	537.48157	573.25793	227.79634	531.69904	556.72113	
1742	17.410	-133.81128	148.47821	-222.86620	255.46611	25.51021	-263.91647	-61.93021	3.11034	396.02884	302.42755	132.19531	357.48590	-61.48579	1223.90247	-331.67035	-36.73663	592.91919	-364.87155	122.82832	593.39948	-383.37042	68.25987	537.40131	573.83020	224.79163	531.96832	557.21631	
1743	17.420	-136.52733	152.80699	-222.30774	254.55692	25.37292	-263.74844	-62.51339	2.88158	396.07748	300.48868	135.37970	358.12256	-62.90554	1223.16748	-331.87634	-37.56937	592.32489	-364.62735	121.57269	592.89978	-382.90875	66.63136	537.48187	574.25305	222.79550	532.52710	558.66541	
1744	17.430	-138.91158	153.39769	-221.30064	253.85674	25.26420	-263.79422	-63.54131	3.02362	395.96210	300.27161	135.86003	359.28720	-64.47800	1222.53748	-332.42566	-38.59723	591.78241	-364.61743	120.01984	592.14063	-381.96487	64.73817	537.98999	574.41821	221.97694	532.30066	557.97552	
1745	17.440	-140.66100	150.73613	-219.78741	253.18619	25.26126	-263.79135	-64.25414	2.92763	395.99066	299.33362	133.40417	360.20297	-65.28323	1222.34424	-332.88614	-39.62868	591.75995	-364.33566	120.61291	592.50720	-382.07608	63.17205	538.20508	574.65796	219.45815	532.76508	558.53979	
1746	17.450	-142.08009	146.81544	-218.74184	252.20586	25.22573	-263.76978	-65.08057	3.19884	395.98016	298.45386	129.25908	361.64984	-65.89587	1222.21265	-333.24857	-40.49813	591.41260	-364.18253	119.13811	592.10663	-381.64182	61.12031	538.79218	574.96368	218.04944	533.41986	558.84033	
1747	17.460	-143.85767	141.55406	-218.04082	251.69640	25.30560	-263.65701	-65.77284	3.21283	395.91260	296.96878	124.27541	362.75198	-66.48582	1222.19946	-333.56195	-41.34150	591.16357	-364.07892	117.69063	591.70233	-380.86319	59.38036	539.18030	574.91162	216.11082	534.13995	560.35583	
1748	17.470	-144.18692	134.85014	-217.77734	250.95395	25.06227	-263.66000	-66.47172	3.18304	395.80377	294.00626	117.81824	363.68051	-67.28720	1222.09460	-333.80304	-42.30049	590.79498	-364.08328	117.19552	591.45355	-381.46616	57.27326	539.39417	575.16290	213.99457	534.04181	559.81750	
1749	17.480	-145.34917	127.04118	-217.59923	250.08836	24.91097	-263.78268	-67.39629	3.13000	395.66821	292.24603	111.05213	364.90762	-68.51154	1221.79175	-334.15149	-42.90754	590.34131	-364.14450	116.61185	591.23969	-381.29504	56.00182	539.52295	575.31940	212.37935	534.26080	560.06573	
1750	17.490	-146.58058	118.57470	-217.99742	249.22722	24.87272	-263.68478	-68.08810	3.12664	395.74991	289.79977	103.06809	365.80344	-69.55773	1221.29749	-334.17990	-43.68775	590.08087	-364.16495	115.52673	590.79150	-380.83060	54.00354	539.71820	575.50757	210.62299	534.33960	560.37830	
1751	17.500	-148.25690	109.67543	-218.36424	248.98749	24.94956	-263.51379	-69.06065	3.46365	395.58087	287.49887	93.86716	366.23605	-70.71438	1221.00903	-334.60538	-44.39436	589.89447	-364.42108	114.66998	590.59387	-380.71939	52.48645	539.80219	575.29187	209.01860	534.47736	560.45856	
1752	17.510	-149.59523	101.18929	-218.91621	248.49873	24.90532	-263.48807	-69.78933	3.83566	395.29385	285.15564	83.45979	366.77524	-71.68504	1220.68372	-334.97314	-45.19934	589.79510	-364.52332	113.74265	590.38245	-380.41946	50.33118	539.72314	575.30402	207.19589	534.53699	560.41174	
1753	17.520	-151.05003	93.27647	-219.60783	247.74812	24.68844	-263.54547	-70.40124	3.79279	395.24948	282.77814	72.61320	367.28152	-72.48761	1220.28662	-335.68619	-45.69312	589.41956	-364.88269	113.87718	590.40558	-381.22086	48.72466	539.91125	575.33691	205.69914	534.60913	559.95648	
